<svg xmlns="http://www.w3.org/2000/svg" xmlns:xlink="http://www.w3.org/1999/xlink" viewBox="0 0 1080 1080" width="1080" height="1080" preserveAspectRatio="xMidYMid meet" style="width: 100%; height: 100%; transform: translate3d(0px, 0px, 0px); content-visibility: visible;" version="1.1">
  <defs>
    <linearGradient id="__lottie_element_15676" spreadMethod="pad" gradientUnits="userSpaceOnUse" x1="-487" y1="168" x2="497.7019958496094" y2="-138.29100036621094">
      <stop offset="0%" stop-color="rgb(61,29,255)"/>
      <stop offset="23%" stop-color="rgb(136,55,255)"/>
      <stop offset="46%" stop-color="rgb(212,81,255)"/>
      <stop offset="62%" stop-color="rgb(224,75,198)"/>
      <stop offset="75%" stop-color="rgb(236,69,141)"/>
      <stop offset="89%" stop-color="rgb(246,135,140)"/>
      <stop offset="100%" stop-color="rgb(255,202,139)"/>
    </linearGradient>
    <g id="__lottie_element_15677">
      <g clip-path="url(#__lottie_element_15678)" opacity="1" style="display: block;">
        <g transform="matrix(0.7597935199737549,-0.6501644253730774,0.6501644253730774,0.7597935199737549,438.0710144042969,631.7540283203125)" opacity="1" style="display: block;">
          <g opacity="1" transform="matrix(1,0,0,1,0,0)">
            <animateTransform attributeName="transform" type="rotate" from="0 0 0" to="360 0 0" dur="10s" repeatCount="indefinite"/>
            <path fill="rgb(0,0,0)" fill-opacity="1" d=" M341.6709899902344,-18.753999710083008 C341.6709899902344,-18.753999710083008 239.73399353027344,-47.8849983215332 239.73399353027344,-47.8849983215332 C193.82899475097656,-60.82699966430664 152.01199340820312,-85.33200073242188 118.28900146484375,-119.05699920654297 C84.56400299072266,-152.78199768066406 60.05799865722656,-194.5970001220703 47.117000579833984,-240.5019989013672 C47.117000579833984,-240.5019989013672 17.98699951171875,-342.4389953613281 17.98699951171875,-342.4389953613281 C16.52199935913086,-346.0050048828125 14.029999732971191,-349.05499267578125 10.82699966430664,-351.2019958496094 C7.625,-353.3489990234375 3.8570001125335693,-354.4949951171875 0.0010000000474974513,-354.4949951171875 C-3.8550000190734863,-354.4949951171875 -7.624000072479248,-353.3489990234375 -10.826000213623047,-351.2019958496094 C-14.029000282287598,-349.05499267578125 -16.520999908447266,-346.0050048828125 -17.986000061035156,-342.4389953613281 C-17.986000061035156,-342.4389953613281 -47.11600112915039,-240.5019989013672 -47.11600112915039,-240.5019989013672 C-60.05799865722656,-194.5970001220703 -84.56400299072266,-152.78199768066406 -118.28900146484375,-119.05699920654297 C-152.01400756835938,-85.33200073242188 -193.82899475097656,-60.82699966430664 -239.73399353027344,-47.8849983215332 C-239.73399353027344,-47.8849983215332 -341.6700134277344,-18.753999710083008 -341.6700134277344,-18.753999710083008 C-345.5840148925781,-17.64299964904785 -349.02899169921875,-15.28600025177002 -351.48199462890625,-12.039999961853027 C-353.93499755859375,-8.793999671936035 -355.2619934082031,-4.8379998207092285 -355.2619934082031,-0.7689999938011169 C-355.2619934082031,3.299999952316284 -353.93499755859375,7.257999897003174 -351.48199462890625,10.503999710083008 C-349.02899169921875,13.75 -345.5840148925781,16.107999801635742 -341.6700134277344,17.219999313354492 C-341.6700134277344,17.219999313354492 -239.73399353027344,46.34700012207031 -239.73399353027344,46.34700012207031 C-193.82899475097656,59.290000915527344 -152.01400756835938,83.7959976196289 -118.28900146484375,117.52100372314453 C-84.56400299072266,151.24600219726562 -60.05799865722656,193.06199645996094 -47.11600112915039,238.9669952392578 C-47.11600112915039,238.9669952392578 -17.986000061035156,340.90399169921875 -17.986000061035156,340.90399169921875 C-16.875,344.8179931640625 -14.517999649047852,348.26300048828125 -11.272000312805176,350.71600341796875 C-8.026000022888184,353.16900634765625 -4.067999839782715,354.4949951171875 0.0010000000474974513,354.4949951171875 C4.068999767303467,354.4949951171875 8.027000427246094,353.16900634765625 11.27299976348877,350.71600341796875 C14.519000053405762,348.26300048828125 16.875999450683594,344.8179931640625 17.98699951171875,340.90399169921875 C17.98699951171875,340.90399169921875 47.117000579833984,238.9669952392578 47.117000579833984,238.9669952392578 C60.05799865722656,193.06199645996094 84.56400299072266,151.24600219726562 118.28900146484375,117.52100372314453 C152.01199340820312,83.7959976196289 193.82899475097656,59.290000915527344 239.73399353027344,46.34700012207031 C239.73399353027344,46.34700012207031 341.6709899902344,17.219999313354492 341.6709899902344,17.219999313354492 C345.5849914550781,16.107999801635742 349.0299987792969,13.75 351.4830017089844,10.503999710083008 C353.9360046386719,7.257999897003174 355.2619934082031,3.299999952316284 355.2619934082031,-0.7689999938011169 C355.2619934082031,-4.8379998207092285 353.9360046386719,-8.793999671936035 351.4830017089844,-12.039999961853027 C349.0299987792969,-15.28600025177002 345.5849914550781,-17.64299964904785 341.6709899902344,-18.753999710083008z"/>
          </g>
        </g>
        <g transform="matrix(0.7597935199737549,0.6501644253730774,-0.6501644253730774,0.7597935199737549,798.0809936523438,259.31500244140625)" opacity="1" style="display: block;">
          <g opacity="1" transform="matrix(1,0,0,1,0,0)">
            <animateTransform attributeName="transform" type="rotate" from="360 0 0" to="0 0 0" dur="8s" repeatCount="indefinite"/>
            <path fill="rgb(0,0,0)" fill-opacity="1" d=" M151.85499572753906,-8.335000038146973 C151.85499572753906,-8.335000038146973 106.54900360107422,-21.281999588012695 106.54900360107422,-21.281999588012695 C86.14700317382812,-27.034000396728516 67.56400299072266,-37.92499923706055 52.57600021362305,-52.91400146484375 C37.58300018310547,-67.90299987792969 26.69499969482422,-86.48799896240234 20.94099998474121,-106.88999938964844 C20.94099998474121,-106.88999938964844 7.997000217437744,-152.19500732421875 7.997000217437744,-152.19500732421875 C7.343999862670898,-153.77999877929688 6.236999988555908,-155.13600158691406 4.810999870300293,-156.08999633789062 C3.390000104904175,-157.04400634765625 1.715000033378601,-157.55299377441406 0,-157.55299377441406 C-1.7100000381469727,-157.55299377441406 -3.384999990463257,-157.04400634765625 -4.810999870300293,-156.08999633789062 C-6.23199987411499,-155.13600158691406 -7.343999862670898,-153.77999877929688 -7.992000102996826,-152.19500732421875 C-7.992000102996826,-152.19500732421875 -20.94099998474121,-106.88999938964844 -20.94099998474121,-106.88999938964844 C-26.690000534057617,-86.48799896240234 -37.58300018310547,-67.90299987792969 -52.57099914550781,-52.91400146484375 C-67.55899810791016,-37.92499923706055 -86.14700317382812,-27.034000396728516 -106.54900360107422,-21.281999588012695 C-106.54900360107422,-21.281999588012695 -151.85000610351562,-8.335000038146973 -151.85000610351562,-8.335000038146973 C-153.58999633789062,-7.841000080108643 -155.12100219726562,-6.794000148773193 -156.21299743652344,-5.35099983215332 C-157.30499267578125,-3.9089999198913574 -157.89300537109375,-2.1489999294281006 -157.89300537109375,-0.3409999907016754 C-157.89300537109375,1.4670000076293945 -157.30499267578125,3.2269999980926514 -156.21299743652344,4.669000148773193 C-155.12100219726562,6.111999988555908 -153.58999633789062,7.158999919891357 -151.85000610351562,7.6529998779296875 C-151.85000610351562,7.6529998779296875 -106.54900360107422,20.600000381469727 -106.54900360107422,20.600000381469727 C-86.14700317382812,26.351999282836914 -67.55899810791016,37.24300003051758 -52.57099914550781,52.231998443603516 C-37.58300018310547,67.22100067138672 -26.690000534057617,85.80599975585938 -20.94099998474121,106.20800018310547 C-20.94099998474121,106.20800018310547 -7.992000102996826,151.51300048828125 -7.992000102996826,151.51300048828125 C-7.498000144958496,153.2530059814453 -6.452000141143799,154.7830047607422 -5.011000156402588,155.8730010986328 C-3.565000057220459,156.96299743652344 -1.8049999475479126,157.55299377441406 0,157.55299377441406 C1.809999942779541,157.55299377441406 3.569999933242798,156.96299743652344 5.011000156402588,155.8730010986328 C6.452000141143799,154.7830047607422 7.502999782562256,153.2530059814453 7.997000217437744,151.51300048828125 C7.997000217437744,151.51300048828125 20.94099998474121,106.20800018310547 20.94099998474121,106.20800018310547 C26.69499969482422,85.80599975585938 37.58300018310547,67.22100067138672 52.57600021362305,52.231998443603516 C67.56400299072266,37.24300003051758 86.14700317382812,26.351999282836914 106.54900360107422,20.600000381469727 C106.54900360107422,20.600000381469727 151.85499572753906,7.6529998779296875 151.85499572753906,7.6529998779296875 C153.59500122070312,7.158999919891357 155.12600708007812,6.111999988555908 156.21800231933594,4.669000148773193 C157.30499267578125,3.2269999980926514 157.89300537109375,1.4670000076293945 157.89300537109375,-0.3409999907016754 C157.89300537109375,-2.1489999294281006 157.30499267578125,-3.9089999198913574 156.21800231933594,-5.35099983215332 C155.12600708007812,-6.794000148773193 153.59500122070312,-7.841000080108643 151.85499572753906,-8.335000038146973z"/>
          </g>
        </g>
      </g>
    </g>
    <mask id="__lottie_element_15677_1" mask-type="alpha">
      <use xlink:href="#__lottie_element_15677"/>
    </mask>
  </defs>
  <g clip-path="url(#__lottie_element_15672)">
    <g mask="url(#__lottie_element_15677_1)" style="display: block;">
      <g transform="matrix(1,0,0,1.045799970626831,540,540)" opacity="1">
        <g opacity="1" transform="matrix(1,0,0,1,0,0)">
          <path fill="url(#__lottie_element_15676)" fill-opacity="1" d=" M512.406005859375,470.52801513671875 C512.406005859375,470.52801513671875 -512.406005859375,470.52801513671875 -512.406005859375,470.52801513671875 C-512.406005859375,470.52801513671875 -512.406005859375,-436.6369934082031 -512.406005859375,-436.6369934082031 C-512.406005859375,-436.6369934082031 512.406005859375,-436.6369934082031 512.406005859375,-436.6369934082031 C512.406005859375,-436.6369934082031 512.406005859375,470.52801513671875 512.406005859375,470.52801513671875z"/>
        </g>
      </g>
    </g>
  </g>
</svg>
